<?xml version="1.0" encoding="UTF-8" standalone="no"?><svg xmlns="http://www.w3.org/2000/svg" xmlns:xlink="http://www.w3.org/1999/xlink" contentScriptType="application/ecmascript" contentStyleType="text/css" height="183px" preserveAspectRatio="none" style="width:1996px;height:183px;background:#FFFFFF;" version="1.1" viewBox="0 0 1996 183" width="1996px" zoomAndPan="magnify"><defs/><g><text fill="#000000" font-family="sans-serif" font-size="18" lengthAdjust="spacing" textLength="117" x="933.3402" y="16.708">MySQL Draw</text><ellipse cx="663.1638" cy="41.5343" fill="#FFFECC" rx="40.6638" ry="14.5812" style="stroke:#333333;stroke-width:2.0;"/><text fill="#000000" font-family="sans-serif" font-size="14" lengthAdjust="spacing" textLength="41" x="640.0122" y="45.1963">setup</text><ellipse cx="493.0638" cy="154.7659" fill="#FFFECC" rx="94.5638" ry="21.3128" style="stroke:#333333;stroke-width:2.0;"/><text fill="#000000" font-family="sans-serif" font-size="14" lengthAdjust="spacing" textLength="152" x="417.0638" y="157.6126">composer:install-dev</text><ellipse cx="662.9237" cy="155.0251" fill="#FFFECC" rx="39.9237" ry="14.5719" style="stroke:#333333;stroke-width:2.0;"/><text fill="#000000" font-family="sans-serif" font-size="14" lengthAdjust="spacing" textLength="40" x="640.5405" y="158.6187">dc:up</text><ellipse cx="774.9961" cy="154.9954" fill="#FFFECC" rx="36.9961" ry="14.5423" style="stroke:#333333;stroke-width:2.0;"/><text fill="#000000" font-family="sans-serif" font-size="14" lengthAdjust="spacing" textLength="36" x="755.6301" y="158.3058">dc:ip</text><ellipse cx="1240.0061" cy="41.4768" fill="#FFFECC" rx="23.5061" ry="14.5236" style="stroke:#333333;stroke-width:2.0;"/><text fill="#000000" font-family="sans-serif" font-size="14" lengthAdjust="spacing" textLength="17" x="1231.5061" y="44.3234">qa</text><ellipse cx="934.0998" cy="155.1731" fill="#FFFECC" rx="86.5998" ry="19.72" style="stroke:#333333;stroke-width:2.0;"/><text fill="#000000" font-family="sans-serif" font-size="14" lengthAdjust="spacing" textLength="134" x="867.0998" y="158.0198">composer:validate</text><ellipse cx="1148.7771" cy="154.9085" fill="#FFFECC" rx="92.7771" ry="20.9554" style="stroke:#333333;stroke-width:2.0;"/><text fill="#000000" font-family="sans-serif" font-size="14" lengthAdjust="spacing" textLength="148" x="1074.7771" y="157.7552">composer:normalize</text><ellipse cx="1330.8472" cy="155.1746" fill="#FFFECC" rx="53.3472" ry="14.7215" style="stroke:#333333;stroke-width:2.0;"/><text fill="#000000" font-family="sans-serif" font-size="14" lengthAdjust="spacing" textLength="58" x="1298.8472" y="158.9221">php:lint</text><ellipse cx="1499.7839" cy="154.8099" fill="#FFFECC" rx="79.7839" ry="18.3568" style="stroke:#333333;stroke-width:2.0;"/><text fill="#000000" font-family="sans-serif" font-size="14" lengthAdjust="spacing" textLength="118" x="1439.0356" y="158.2144">phpstan:analyse</text><ellipse cx="264.8338" cy="41.4818" fill="#FFFECC" rx="34.8338" ry="14.5287" style="stroke:#333333;stroke-width:2.0;"/><text fill="#000000" font-family="sans-serif" font-size="14" lengthAdjust="spacing" textLength="33" x="247.6671" y="44.5699">phar</text><ellipse cx="265.1626" cy="154.9857" fill="#FFFECC" rx="98.1626" ry="22.0325" style="stroke:#333333;stroke-width:2.0;"/><text fill="#000000" font-family="sans-serif" font-size="14" lengthAdjust="spacing" textLength="160" x="185.1626" y="157.8323">composer:install-prod</text><ellipse cx="69.0625" cy="154.9656" fill="#FFFECC" rx="63.0625" ry="15.0125" style="stroke:#333333;stroke-width:2.0;"/><text fill="#000000" font-family="sans-serif" font-size="14" lengthAdjust="spacing" textLength="73" x="29.5625" y="158.7132">phar:build</text><ellipse cx="1675.1191" cy="41.4791" fill="#FFFECC" rx="34.1191" ry="14.526" style="stroke:#333333;stroke-width:2.0;"/><text fill="#000000" font-family="sans-serif" font-size="14" lengthAdjust="spacing" textLength="32" x="1658.6725" y="44.4912">help</text><ellipse cx="1674.8197" cy="154.7202" fill="#FFFECC" rx="59.3197" ry="14.7671" style="stroke:#333333;stroke-width:2.0;"/><text fill="#000000" font-family="sans-serif" font-size="14" lengthAdjust="spacing" textLength="66" x="1638.8197" y="158.4678">visualizer</text><ellipse cx="1795.1079" cy="41.6547" fill="#FFFECC" rx="51.1079" ry="14.7016" style="stroke:#333333;stroke-width:2.0;"/><text fill="#000000" font-family="sans-serif" font-size="14" lengthAdjust="spacing" textLength="55" x="1764.6079" y="45.4023">dc:stop</text><ellipse cx="1935.8402" cy="41.6869" fill="#FFFECC" rx="54.8402" ry="14.7338" style="stroke:#333333;stroke-width:2.0;"/><text fill="#000000" font-family="sans-serif" font-size="14" lengthAdjust="spacing" textLength="60" x="1902.8402" y="45.4345">dc:down</text><!--MD5=[751d62ae29326f3050ea8da88ad1b34c]
link setup to composer:install-dev--><path d="M643.24,54.1821 C628.899,62.7861 609.097,74.8551 592,85.9531 C569.399,100.6245 544.389,117.8113 525.161,131.2355 " fill="none" id="setup-to-composer:install-dev" style="stroke:#1A85FF;stroke-width:2.0;"/><polygon fill="#1A85FF" points="520.901,134.214,530.5688,132.334,524.9984,131.3485,525.984,125.7782,520.901,134.214" style="stroke:#1A85FF;stroke-width:2.0;"/><text fill="#000000" font-family="sans-serif" font-size="13" lengthAdjust="spacing" textLength="61" x="593" y="99.02">depend:1</text><!--MD5=[a418aa9f6b8b4a014169012d5f92d57a]
link setup to dc:up--><path d="M663,56.1251 C663,75.9371 663,112.6976 663,135.0796 " fill="none" id="setup-to-dc:up" style="stroke:#1A85FF;stroke-width:2.0;"/><polygon fill="#1A85FF" points="663,140.1692,667,131.1692,663,135.1692,659,131.1692,663,140.1692" style="stroke:#1A85FF;stroke-width:2.0;"/><text fill="#000000" font-family="sans-serif" font-size="13" lengthAdjust="spacing" textLength="61" x="664" y="99.02">depend:2</text><!--MD5=[dde10144cbfaedd765f35520ddf255da]
link setup to dc:ip--><path d="M686.706,53.3091 C701.538,60.9331 720.351,72.2071 734,85.9531 C748.399,100.4547 759.87,120.9633 766.976,135.6593 " fill="none" id="setup-to-dc:ip" style="stroke:#1A85FF;stroke-width:2.0;"/><polygon fill="#1A85FF" points="769.216,140.4033,768.9899,130.5571,767.0809,135.8821,761.7559,133.9731,769.216,140.4033" style="stroke:#1A85FF;stroke-width:2.0;"/><text fill="#000000" font-family="sans-serif" font-size="13" lengthAdjust="spacing" textLength="61" x="749" y="99.02">depend:3</text><!--MD5=[2b3f4df63b0ee79c9fb6dbf297809d2e]
link qa to composer:validate--><path d="M1220.39,49.5971 C1172.99,66.8711 1051.03,111.3086 982.538,136.267 " fill="none" id="qa-to-composer:validate" style="stroke:#1A85FF;stroke-width:2.0;"/><polygon fill="#1A85FF" points="977.7,138.0297,987.5255,138.7075,982.398,136.3183,984.7872,131.1907,977.7,138.0297" style="stroke:#1A85FF;stroke-width:2.0;"/><text fill="#000000" font-family="sans-serif" font-size="13" lengthAdjust="spacing" textLength="61" x="1116" y="99.02">depend:1</text><!--MD5=[bd109b3677e86d799c713ba6a41cbebf]
link qa to composer:normalize--><path d="M1229.91,54.8111 C1215.13,72.9281 1187.29,107.0433 1168.44,130.1337 " fill="none" id="qa-to-composer:normalize" style="stroke:#1A85FF;stroke-width:2.0;"/><polygon fill="#1A85FF" points="1165.26,134.0252,1174.0508,129.5842,1168.4225,130.1524,1167.8543,124.5242,1165.26,134.0252" style="stroke:#1A85FF;stroke-width:2.0;"/><text fill="#000000" font-family="sans-serif" font-size="13" lengthAdjust="spacing" textLength="61" x="1204" y="99.02">depend:2</text><!--MD5=[1748b89255b60d33f2cdf4c4b14f6851]
link qa to php:lint--><path d="M1250.09,54.8111 C1266.29,74.6681 1298.18,113.7439 1316.72,136.4577 " fill="none" id="qa-to-php:lint" style="stroke:#1A85FF;stroke-width:2.0;"/><polygon fill="#1A85FF" points="1320.02,140.5001,1317.4255,130.9992,1316.8574,136.6274,1311.2291,136.0593,1320.02,140.5001" style="stroke:#1A85FF;stroke-width:2.0;"/><text fill="#000000" font-family="sans-serif" font-size="13" lengthAdjust="spacing" textLength="61" x="1290" y="99.02">depend:3</text><!--MD5=[b262473b911c46ff8b5477d1d7192d1b]
link qa to phpstan:analyse--><path d="M1260.21,49.0581 C1284.26,57.0841 1325.51,71.3711 1360,85.9531 C1396.11,101.2203 1436.27,121.0273 1464.28,135.3225 " fill="none" id="qa-to-phpstan:analyse" style="stroke:#1A85FF;stroke-width:2.0;"/><polygon fill="#1A85FF" points="1469.01,137.7462,1462.8117,130.0924,1464.5564,135.4735,1459.1753,137.2181,1469.01,137.7462" style="stroke:#1A85FF;stroke-width:2.0;"/><text fill="#000000" font-family="sans-serif" font-size="13" lengthAdjust="spacing" textLength="61" x="1397" y="99.02">depend:4</text><!--MD5=[2a034eff9be3e3f378a62a58a537e70f]
link phar to composer:install-prod--><path d="M265,56.1251 C265,73.8911 265,105.2864 265,127.7205 " fill="none" id="phar-to-composer:install-prod" style="stroke:#1A85FF;stroke-width:2.0;"/><polygon fill="#1A85FF" points="265,132.9317,269,123.9317,265,127.9317,261,123.9317,265,132.9317" style="stroke:#1A85FF;stroke-width:2.0;"/><text fill="#000000" font-family="sans-serif" font-size="13" lengthAdjust="spacing" textLength="61" x="266" y="99.02">depend:1</text><!--MD5=[84de4cd96d4df311c7cedc5ac9ca2468]
link phar to phar:build--><path d="M245.49,53.5521 C210.505,73.4541 137.006,115.2662 96.7727,138.1539 " fill="none" id="phar-to-phar:build" style="stroke:#1A85FF;stroke-width:2.0;"/><polygon fill="#1A85FF" points="92.0359,140.8485,101.8365,139.8752,96.3819,138.3762,97.8809,132.9216,92.0359,140.8485" style="stroke:#1A85FF;stroke-width:2.0;"/><text fill="#000000" font-family="sans-serif" font-size="13" lengthAdjust="spacing" textLength="61" x="186" y="99.02">depend:2</text><!--MD5=[36f777e7e8cc317d7414af433134ace2]
link phar to composer:install-dev--><path d="M286.45,52.9431 C323.714,71.1661 401.083,109.0023 449.831,132.842 " fill="none" id="phar-to-composer:install-dev" style="stroke:#1A85FF;stroke-width:2.0;"/><polygon fill="#1A85FF" points="454.457,135.1042,448.1301,127.5564,449.9656,132.9072,444.6148,134.7426,454.457,135.1042" style="stroke:#1A85FF;stroke-width:2.0;"/><text fill="#000000" font-family="sans-serif" font-size="13" lengthAdjust="spacing" textLength="61" x="387" y="99.02">depend:3</text><!--MD5=[9f3237f55493a0d177cfac72db78ff2c]
link help to visualizer--><path d="M1675,56.1251 C1675,75.8291 1675,112.2985 1675,134.7134 " fill="none" id="help-to-visualizer" style="stroke:#D41159;stroke-width:2.0;"/><polygon fill="#D41159" points="1675,139.8174,1679,130.8174,1675,134.8174,1671,130.8174,1675,139.8174" style="stroke:#D41159;stroke-width:2.0;"/><text fill="#000000" font-family="sans-serif" font-size="13" lengthAdjust="spacing" textLength="34" x="1676" y="99.02">call:1</text><!--MD5=[caefde934c56032811b405d8b942ee34]
@startuml
title
MySQL Draw
end title

top to bottom direction

skinparam Shadowing false
skinparam ArrowFontColor Black
skinparam ArrowThickness 2
skinparam UseCaseBackgroundColor #FFFECC
skinparam UseCaseBorderColor #333333
skinparam UseCaseBorderThickness 2
skinparam UseCaseFontColor Black


(setup) -[#1A85FF]-> (composer:install-dev) : depend:1
(setup) -[#1A85FF]-> (dc:up) : depend:2
(setup) -[#1A85FF]-> (dc:ip) : depend:3
(qa) -[#1A85FF]-> (composer:validate) : depend:1
(qa) -[#1A85FF]-> (composer:normalize) : depend:2
(qa) -[#1A85FF]-> (php:lint) : depend:3
(qa) -[#1A85FF]-> (phpstan:analyse) : depend:4
(phar) -[#1A85FF]-> (composer:install-prod) : depend:1
(phar) -[#1A85FF]-> (phar:build) : depend:2
(phar) -[#1A85FF]-> (composer:install-dev) : depend:3
(help) -[#D41159]-> (visualizer) : call:1
(setup)
(qa)
(phar)
(composer:install-dev)
(composer:install-prod)
(phar:build)
(composer:validate)
(composer:normalize)
(php:lint)
(help)
(visualizer)
(dc:up)
(dc:stop)
(dc:down)
(dc:ip)
(phpstan:analyse)
@enduml

PlantUML version 1.2021.11beta7(Unknown compile time)
(GPL source distribution)
Java Runtime: Java(TM) SE Runtime Environment
JVM: Java HotSpot(TM) 64-Bit Server VM
Default Encoding: UTF-8
Language: en
Country: US
--></g></svg>