<?xml version="1.0" encoding="UTF-8" standalone="no"?><svg xmlns="http://www.w3.org/2000/svg" xmlns:xlink="http://www.w3.org/1999/xlink" contentStyleType="text/css" height="199px" preserveAspectRatio="none" style="width:1996px;height:199px;background:#FFFFFF;" version="1.1" viewBox="0 0 1996 199" width="1996px" zoomAndPan="magnify"><defs/><g><rect fill="none" height="26.2969" id="_title" style="stroke:none;stroke-width:1.0;" width="110" x="936.3402" y="5"/><text fill="#000000" font-family="sans-serif" font-size="14" font-weight="bold" lengthAdjust="spacing" textLength="100" x="941.3402" y="22.9951">MySQL Draw</text><g id="elem_setup"><ellipse cx="663.1638" cy="57.878" fill="#FFFECC" rx="40.6638" ry="14.5812" style="stroke:#333333;stroke-width:2.0;"/><text fill="#000000" font-family="sans-serif" font-size="14" lengthAdjust="spacing" textLength="41" x="640.0122" y="61.5401">setup</text></g><g id="elem_composer:install-dev"><ellipse cx="493.0638" cy="171.1096" fill="#FFFECC" rx="94.5638" ry="21.3128" style="stroke:#333333;stroke-width:2.0;"/><text fill="#000000" font-family="sans-serif" font-size="14" lengthAdjust="spacing" textLength="152" x="417.0638" y="173.9563">composer:install-dev</text></g><g id="elem_dc:up"><ellipse cx="662.9237" cy="171.3688" fill="#FFFECC" rx="39.9237" ry="14.5719" style="stroke:#333333;stroke-width:2.0;"/><text fill="#000000" font-family="sans-serif" font-size="14" lengthAdjust="spacing" textLength="40" x="640.5405" y="174.9624">dc:up</text></g><g id="elem_dc:ip"><ellipse cx="774.9961" cy="171.3392" fill="#FFFECC" rx="36.9961" ry="14.5423" style="stroke:#333333;stroke-width:2.0;"/><text fill="#000000" font-family="sans-serif" font-size="14" lengthAdjust="spacing" textLength="36" x="755.6301" y="174.6496">dc:ip</text></g><g id="elem_qa"><ellipse cx="1240.0061" cy="57.8205" fill="#FFFECC" rx="23.5061" ry="14.5236" style="stroke:#333333;stroke-width:2.0;"/><text fill="#000000" font-family="sans-serif" font-size="14" lengthAdjust="spacing" textLength="17" x="1231.5061" y="60.6672">qa</text></g><g id="elem_composer:validate"><ellipse cx="934.0998" cy="171.5168" fill="#FFFECC" rx="86.5998" ry="19.72" style="stroke:#333333;stroke-width:2.0;"/><text fill="#000000" font-family="sans-serif" font-size="14" lengthAdjust="spacing" textLength="134" x="867.0998" y="174.3635">composer:validate</text></g><g id="elem_composer:normalize"><ellipse cx="1148.7771" cy="171.2523" fill="#FFFECC" rx="92.7771" ry="20.9554" style="stroke:#333333;stroke-width:2.0;"/><text fill="#000000" font-family="sans-serif" font-size="14" lengthAdjust="spacing" textLength="148" x="1074.7771" y="174.099">composer:normalize</text></g><g id="elem_php:lint"><ellipse cx="1330.8472" cy="171.5183" fill="#FFFECC" rx="53.3472" ry="14.7215" style="stroke:#333333;stroke-width:2.0;"/><text fill="#000000" font-family="sans-serif" font-size="14" lengthAdjust="spacing" textLength="58" x="1298.8472" y="175.2659">php:lint</text></g><g id="elem_phpstan:analyse"><ellipse cx="1499.7839" cy="171.1536" fill="#FFFECC" rx="79.7839" ry="18.3568" style="stroke:#333333;stroke-width:2.0;"/><text fill="#000000" font-family="sans-serif" font-size="14" lengthAdjust="spacing" textLength="118" x="1439.0356" y="174.5582">phpstan:analyse</text></g><g id="elem_phar"><ellipse cx="264.8338" cy="57.8256" fill="#FFFECC" rx="34.8338" ry="14.5287" style="stroke:#333333;stroke-width:2.0;"/><text fill="#000000" font-family="sans-serif" font-size="14" lengthAdjust="spacing" textLength="33" x="247.6671" y="60.9137">phar</text></g><g id="elem_composer:install-prod"><ellipse cx="265.1626" cy="171.3294" fill="#FFFECC" rx="98.1626" ry="22.0325" style="stroke:#333333;stroke-width:2.0;"/><text fill="#000000" font-family="sans-serif" font-size="14" lengthAdjust="spacing" textLength="160" x="185.1626" y="174.1761">composer:install-prod</text></g><g id="elem_phar:build"><ellipse cx="69.0625" cy="171.3094" fill="#FFFECC" rx="63.0625" ry="15.0125" style="stroke:#333333;stroke-width:2.0;"/><text fill="#000000" font-family="sans-serif" font-size="14" lengthAdjust="spacing" textLength="73" x="29.5625" y="175.0569">phar:build</text></g><g id="elem_help"><ellipse cx="1675.1191" cy="57.8229" fill="#FFFECC" rx="34.1191" ry="14.526" style="stroke:#333333;stroke-width:2.0;"/><text fill="#000000" font-family="sans-serif" font-size="14" lengthAdjust="spacing" textLength="32" x="1658.6725" y="60.835">help</text></g><g id="elem_visualizer"><ellipse cx="1674.8197" cy="171.064" fill="#FFFECC" rx="59.3197" ry="14.7671" style="stroke:#333333;stroke-width:2.0;"/><text fill="#000000" font-family="sans-serif" font-size="14" lengthAdjust="spacing" textLength="66" x="1638.8197" y="174.8116">visualizer</text></g><g id="elem_dc:stop"><ellipse cx="1795.1079" cy="57.9985" fill="#FFFECC" rx="51.1079" ry="14.7016" style="stroke:#333333;stroke-width:2.0;"/><text fill="#000000" font-family="sans-serif" font-size="14" lengthAdjust="spacing" textLength="55" x="1764.6079" y="61.746">dc:stop</text></g><g id="elem_dc:down"><ellipse cx="1935.8402" cy="58.0307" fill="#FFFECC" rx="54.8402" ry="14.7338" style="stroke:#333333;stroke-width:2.0;"/><text fill="#000000" font-family="sans-serif" font-size="14" lengthAdjust="spacing" textLength="60" x="1902.8402" y="61.7782">dc:down</text></g><!--MD5=[751d62ae29326f3050ea8da88ad1b34c]
link setup to composer:install-dev--><g id="link_setup_composer:install-dev"><path d="M643.24,70.5259 C628.899,79.1299 609.097,91.1989 592,102.2969 C569.399,116.9683 544.389,134.1551 525.161,147.5793 " fill="none" id="setup-to-composer:install-dev" style="stroke:#1A85FF;stroke-width:2.0;"/><polygon fill="#1A85FF" points="520.901,150.5578,530.5688,148.6778,524.9984,147.6923,525.984,142.1219,520.901,150.5578" style="stroke:#1A85FF;stroke-width:2.0;"/><text fill="#000000" font-family="sans-serif" font-size="13" lengthAdjust="spacing" textLength="61" x="593" y="115.3638">depend:1</text></g><!--MD5=[a418aa9f6b8b4a014169012d5f92d57a]
link setup to dc:up--><g id="link_setup_dc:up"><path d="M663,72.4689 C663,92.2809 663,129.0414 663,151.4234 " fill="none" id="setup-to-dc:up" style="stroke:#1A85FF;stroke-width:2.0;"/><polygon fill="#1A85FF" points="663,156.513,667,147.513,663,151.513,659,147.513,663,156.513" style="stroke:#1A85FF;stroke-width:2.0;"/><text fill="#000000" font-family="sans-serif" font-size="13" lengthAdjust="spacing" textLength="61" x="664" y="115.3638">depend:2</text></g><!--MD5=[dde10144cbfaedd765f35520ddf255da]
link setup to dc:ip--><g id="link_setup_dc:ip"><path d="M686.706,69.6529 C701.538,77.2769 720.351,88.5509 734,102.2969 C748.399,116.7985 759.87,137.3071 766.976,152.0031 " fill="none" id="setup-to-dc:ip" style="stroke:#1A85FF;stroke-width:2.0;"/><polygon fill="#1A85FF" points="769.216,156.7471,768.9899,146.9008,767.0809,152.2258,761.7559,150.3169,769.216,156.7471" style="stroke:#1A85FF;stroke-width:2.0;"/><text fill="#000000" font-family="sans-serif" font-size="13" lengthAdjust="spacing" textLength="61" x="749" y="115.3638">depend:3</text></g><!--MD5=[2b3f4df63b0ee79c9fb6dbf297809d2e]
link qa to composer:validate--><g id="link_qa_composer:validate"><path d="M1220.39,65.9409 C1172.99,83.2149 1051.03,127.6524 982.538,152.6108 " fill="none" id="qa-to-composer:validate" style="stroke:#1A85FF;stroke-width:2.0;"/><polygon fill="#1A85FF" points="977.7,154.3735,987.5255,155.0512,982.398,152.662,984.7872,147.5345,977.7,154.3735" style="stroke:#1A85FF;stroke-width:2.0;"/><text fill="#000000" font-family="sans-serif" font-size="13" lengthAdjust="spacing" textLength="61" x="1116" y="115.3638">depend:1</text></g><!--MD5=[bd109b3677e86d799c713ba6a41cbebf]
link qa to composer:normalize--><g id="link_qa_composer:normalize"><path d="M1229.91,71.1549 C1215.13,89.2719 1187.29,123.3871 1168.44,146.4775 " fill="none" id="qa-to-composer:normalize" style="stroke:#1A85FF;stroke-width:2.0;"/><polygon fill="#1A85FF" points="1165.26,150.369,1174.0508,145.928,1168.4225,146.4962,1167.8543,140.868,1165.26,150.369" style="stroke:#1A85FF;stroke-width:2.0;"/><text fill="#000000" font-family="sans-serif" font-size="13" lengthAdjust="spacing" textLength="61" x="1204" y="115.3638">depend:2</text></g><!--MD5=[1748b89255b60d33f2cdf4c4b14f6851]
link qa to php:lint--><g id="link_qa_php:lint"><path d="M1250.09,71.1549 C1266.29,91.0119 1298.18,130.0877 1316.72,152.8015 " fill="none" id="qa-to-php:lint" style="stroke:#1A85FF;stroke-width:2.0;"/><polygon fill="#1A85FF" points="1320.02,156.8439,1317.4255,147.3429,1316.8574,152.9712,1311.2291,152.4031,1320.02,156.8439" style="stroke:#1A85FF;stroke-width:2.0;"/><text fill="#000000" font-family="sans-serif" font-size="13" lengthAdjust="spacing" textLength="61" x="1290" y="115.3638">depend:3</text></g><!--MD5=[b262473b911c46ff8b5477d1d7192d1b]
link qa to phpstan:analyse--><g id="link_qa_phpstan:analyse"><path d="M1260.21,65.4019 C1284.26,73.4279 1325.51,87.7149 1360,102.2969 C1396.11,117.5641 1436.27,137.3711 1464.28,151.6663 " fill="none" id="qa-to-phpstan:analyse" style="stroke:#1A85FF;stroke-width:2.0;"/><polygon fill="#1A85FF" points="1469.01,154.09,1462.8117,146.4361,1464.5564,151.8172,1459.1753,153.5619,1469.01,154.09" style="stroke:#1A85FF;stroke-width:2.0;"/><text fill="#000000" font-family="sans-serif" font-size="13" lengthAdjust="spacing" textLength="61" x="1397" y="115.3638">depend:4</text></g><!--MD5=[2a034eff9be3e3f378a62a58a537e70f]
link phar to composer:install-prod--><g id="link_phar_composer:install-prod"><path d="M265,72.4689 C265,90.2349 265,121.6302 265,144.0643 " fill="none" id="phar-to-composer:install-prod" style="stroke:#1A85FF;stroke-width:2.0;"/><polygon fill="#1A85FF" points="265,149.2755,269,140.2755,265,144.2755,261,140.2755,265,149.2755" style="stroke:#1A85FF;stroke-width:2.0;"/><text fill="#000000" font-family="sans-serif" font-size="13" lengthAdjust="spacing" textLength="61" x="266" y="115.3638">depend:1</text></g><!--MD5=[84de4cd96d4df311c7cedc5ac9ca2468]
link phar to phar:build--><g id="link_phar_phar:build"><path d="M245.49,69.8959 C210.505,89.7979 137.006,131.61 96.7727,154.4977 " fill="none" id="phar-to-phar:build" style="stroke:#1A85FF;stroke-width:2.0;"/><polygon fill="#1A85FF" points="92.0359,157.1923,101.8365,156.219,96.3819,154.72,97.8809,149.2653,92.0359,157.1923" style="stroke:#1A85FF;stroke-width:2.0;"/><text fill="#000000" font-family="sans-serif" font-size="13" lengthAdjust="spacing" textLength="61" x="186" y="115.3638">depend:2</text></g><!--MD5=[36f777e7e8cc317d7414af433134ace2]
link phar to composer:install-dev--><g id="link_phar_composer:install-dev"><path d="M286.45,69.2869 C323.714,87.5099 401.083,125.3461 449.831,149.1858 " fill="none" id="phar-to-composer:install-dev" style="stroke:#1A85FF;stroke-width:2.0;"/><polygon fill="#1A85FF" points="454.457,151.448,448.1301,143.9001,449.9656,149.2509,444.6148,151.0864,454.457,151.448" style="stroke:#1A85FF;stroke-width:2.0;"/><text fill="#000000" font-family="sans-serif" font-size="13" lengthAdjust="spacing" textLength="61" x="387" y="115.3638">depend:3</text></g><!--MD5=[9f3237f55493a0d177cfac72db78ff2c]
link help to visualizer--><g id="link_help_visualizer"><path d="M1675,72.4689 C1675,92.1729 1675,128.6423 1675,151.0572 " fill="none" id="help-to-visualizer" style="stroke:#D41159;stroke-width:2.0;"/><polygon fill="#D41159" points="1675,156.1612,1679,147.1612,1675,151.1612,1671,147.1612,1675,156.1612" style="stroke:#D41159;stroke-width:2.0;"/><text fill="#000000" font-family="sans-serif" font-size="13" lengthAdjust="spacing" textLength="34" x="1676" y="115.3638">call:1</text></g><!--MD5=[40aa2a5fd9b35f68a6b5e41493798d3b]
@startuml
title
MySQL Draw
end title

top to bottom direction

skinparam Shadowing false
skinparam ArrowFontColor Black
skinparam ArrowThickness 2
skinparam UseCaseBackgroundColor #FFFECC
skinparam UseCaseBorderColor #333333
skinparam UseCaseBorderThickness 2
skinparam UseCaseFontColor Black


(setup) -[#1A85FF]-> (composer:install-dev) : depend:1
(setup) -[#1A85FF]-> (dc:up) : depend:2
(setup) -[#1A85FF]-> (dc:ip) : depend:3
(qa) -[#1A85FF]-> (composer:validate) : depend:1
(qa) -[#1A85FF]-> (composer:normalize) : depend:2
(qa) -[#1A85FF]-> (php:lint) : depend:3
(qa) -[#1A85FF]-> (phpstan:analyse) : depend:4
(phar) -[#1A85FF]-> (composer:install-prod) : depend:1
(phar) -[#1A85FF]-> (phar:build) : depend:2
(phar) -[#1A85FF]-> (composer:install-dev) : depend:3
(help) -[#D41159]-> (visualizer) : call:1
(setup)
(qa)
(phar)
(composer:install-dev)
(composer:install-prod)
(phar:build)
(composer:validate)
(composer:normalize)
(php:lint)
(help)
(visualizer)
(dc:up)
(dc:stop)
(dc:down)
(dc:ip)
(phpstan:analyse)
@enduml

PlantUML version 1.2022.10beta1(Unknown compile time)
(GPL source distribution)
Java Runtime: Java(TM) SE Runtime Environment
JVM: Java HotSpot(TM) 64-Bit Server VM
Default Encoding: UTF-8
Language: en
Country: US
--></g></svg>